# xmcd
#
# Track frame offsets: 
#        150
#        12874
#        24363
#        38772
#        47767
#        59718
#        71530
#        82977
#        94800
#        106994
#        124679
#        141022
#        153855
#        165291
#        178895
#        191530
#        201132
#        209283
#        218289
#        231516
#
# Disc length: 3279 seconds
#
# Revision: 0
# Processed by: cddbd v1.5.2PL0 Copyright (c) Steve Scherf et al.
# Submitted via: ExactAudioCopyFreeDBPlugin 1.0
#
DISCID=090ccd14
DTITLE=Various Artist - Country Greatest Ever
DYEAR=1900
DGENRE=Country
TTITLE0=Jonny Cash - Folsom Prison Blues
TTITLE1=Patsy Cline - Walkin After Midnight
TTITLE2=Jaennie C Riley - Harper Valley PTA
TTITLE3=Everly Brothers - Wake Up Little Susie
TTITLE4=Dolly Parton - Jolene
TTITLE5=Barbara Fairchild - You Cant't Put The City In A Country Girl
TTITLE6=Charlie Feathers - Defrost Your Heard
TTITLE7=Billie Jo Spears - Ease The Want In Me
TTITLE8=Tammy Wynette - Stand ByYour Man
TTITLE9=Billy Swan - I Can Help
TTITLE10=Carlie Daniels Band - The Devil Went Down To Georgia
TTITLE11=Tex Williams - Smoke, Smoke, Smoke
TTITLE12=Red Foley - M-I-S-S-I-S-S-I-P-P-I
TTITLE13=Merle Travis - Divorce Me C.O.D.
TTITLE14=Hank Williams - I'm So Lonesome I Could Cry
TTITLE15=Roy Orbison - You're Gomma Cry
TTITLE16=Jerry Lee Lewis - Your Cheatin' Heard
TTITLE17=Frankie Laine - Rawhide
TTITLE18=Jimmy Dale and The Flatlanders - Tonight I Thing I'm Gonna Go D
TTITLE18=owntown
TTITLE19=Loretta Lynn - Coalminer's Daughter (live)
EXTD=
EXTT0=
EXTT1=
EXTT2=
EXTT3=
EXTT4=
EXTT5=
EXTT6=
EXTT7=
EXTT8=
EXTT9=
EXTT10=
EXTT11=
EXTT12=
EXTT13=
EXTT14=
EXTT15=
EXTT16=
EXTT17=
EXTT18=
EXTT19=
PLAYORDER=
